# xmcd CD database file
#
# Track frame offsets:
#	150
#	35661
#	75523
#	111246
#	137616
#	184747
#
# Disc length: 2939 seconds
#
# Revision: 0
# Processed by: cddbd v1.5.2PL0 Copyright (c) Steve Scherf et al.
# Submitted via: CDex 1.70beta2
#
DISCID=480b7906
DTITLE=The Thing - She Knows...
DYEAR=2001
DGENRE=Jazz
TTITLE0=To Bring You My Love
TTITLE1=The Thing
TTITLE2=Baby Talk
TTITLE3=Going Home
TTITLE4=For Real
TTITLE5=Old Eyes
EXTD=YEAR: 2001
EXTT0=
EXTT1=
EXTT2=
EXTT3=
EXTT4=
EXTT5=
PLAYORDER=
